<?xml version="1.0" standalone="no"?>
<!DOCTYPE svg PUBLIC "-//W3C//DTD SVG 1.1//EN" "http://www.w3.org/Graphics/SVG/1.1/DTD/svg11.dtd">
<svg t="1577087973032" class="icon"  version="1.1" xmlns="http://www.w3.org/2000/svg" p-id="2739" xmlns:xlink="http://www.w3.org/1999/xlink" width="10" height="10">
<defs>
<style type="text/css">
</style>
<symbol viewBox="0 0 1782 1024" id="star">

<path  d="M851.100239 26.57232l128.386589 259.982842c6.913124 14.073145 20.369026 23.825588 35.923555 26.171113l287.018095 41.725641c39.13322 5.678638 54.811197 53.823608 26.41801 81.476104l-207.640618 202.455775c-11.233827 10.986929-16.41867 26.788356-13.702799 42.342884l49.009111 285.783609c6.666227 39.009771-34.318723 68.760894-69.254689 50.367046l-256.773177-135.052815c-13.949697-7.28347-30.491815-7.28347-44.441512 0l-256.649728 134.929367c-35.059415 18.393848-76.044364-11.357275-69.254689-50.367047l49.009111-285.783608c2.71587-15.554529-2.468973-31.355955-13.702799-42.342885l-207.640618-202.455774c-28.393188-27.652496-12.71521-75.797467 26.41801-81.476105L601.116737 312.726275c15.554529-2.222076 29.010431-11.974518 35.923555-26.171113L765.426881 26.57232c17.529707-35.429761 68.143651-35.429761 85.673358 0z" fill="#FC9C23" p-id="2740"></path>
<path d="M1109.601698 682.208063l48.638765 285.907057c6.666227 39.009771-34.318723 68.760894-69.378137 50.243598L832.336046 883.059005M1018.002805 311.491788l286.647749 44.071166c39.13322 6.048984 54.317403 54.317403 25.800766 81.723002L1121.082421 638.013449M637.040292 287.419303L765.056535 27.189564c17.529707-35.553209 68.143651-35.553209 85.673358-0.123449L979.363379 287.048957M495.568148 637.02586l-209.862694-200.11025c-28.640085-27.28215-13.579351-75.674018 25.55387-81.723002l286.400851-44.935306M787.277291 880.590032l-256.649729 134.929367c-35.059415 18.393848-76.044364-11.357275-69.254689-50.367046l49.009112-285.783609" fill="#EA800C" p-id="2741"></path>
<path d="M809.004252 201.869393m-18.517296 0a18.517296 18.517296 0 1 0 37.034592 0 18.517296 18.517296 0 1 0-37.034592 0Z" fill="#FFFFFF" p-id="2742"></path><path d="M611.856769 830.716781m-18.517296 0a18.517296 18.517296 0 1 0 37.034593 0 18.517296 18.517296 0 1 0-37.034593 0Z" fill="#FFFFFF" p-id="2743"></path><path d="M1160.832884 437.656301m-18.517296 0a18.517296 18.517296 0 1 0 37.034593 0 18.517296 18.517296 0 1 0-37.034593 0Z"  p-id="2744"></path><path d="M1023.804891 836.395418m-18.517297 0a18.517296 18.517296 0 1 0 37.034593 0 18.517296 18.517296 0 1 0-37.034593 0Z" fill="#FFFFFF" p-id="2745"></path><path d="M484.581218 444.19908m-18.517296 0a18.517296 18.517296 0 1 0 37.034593 0 18.517296 18.517296 0 1 0-37.034593 0Z" fill="#FFFFFF" p-id="2746"></path><path d="M720.368126 775.164891m-18.517296 0a18.517296 18.517296 0 1 0 37.034593 0 18.517296 18.517296 0 1 0-37.034593 0Z" fill="#FFFFFF" p-id="2747"></path><path d="M926.52736 793.682188m-18.517296 0a18.517296 18.517296 0 1 0 37.034593 0 18.517296 18.517296 0 1 0-37.034593 0Z" fill="#FFFFFF" p-id="2748"></path><path d="M1093.306477 510.861347m-18.517297 0a18.517296 18.517296 0 1 0 37.034593 0 18.517296 18.517296 0 1 0-37.034593 0Z" fill="#FFFFFF" p-id="2749"></path>
<path d="M884.67827 271.370979m-18.517296 0a18.517296 18.517296 0 1 0 37.034593 0 18.517296 18.517296 0 1 0-37.034593 0Z" fill="#FFFFFF" p-id="2750"></path>
<path d="M584.698068 394.819622m-18.517297 0a18.517296 18.517296 0 1 0 37.034593 0 18.517296 18.517296 0 1 0-37.034593 0Z" fill="#FFFFFF" p-id="2751">
</path>
</symbol>

<symbol viewBox="0 0 1024 1024" id="star2">
			<path  d="M254.997 942.267c-7.055 0-13.557-1.99-19.031-5.967-11.038-8.021-15.677-22.506-12.721-39.745l44.592-259.995L78.94 452.427c-12.524-12.206-17.289-26.647-13.076-39.625 4.219-12.977 16.562-21.867 33.872-24.38l261.05-37.938 116.75-236.554c7.743-15.682 20.004-24.676 33.648-24.676s25.905 8.994 33.648 24.676l116.75 236.554 261.056 37.937c17.305 2.514 29.648 11.398 33.861 24.375 4.219 12.976-0.546 27.423-13.07 39.63L754.53 636.56l44.593 259.99c2.956 17.239-1.672 31.724-12.71 39.745-11.042 8.01-26.244 7.95-41.734-0.18L511.184 813.36l-233.49 122.755c-7.803 4.098-15.534 6.152-22.697 6.152z m-152.18-517.46c0.421 0.475 0.919 1.005 1.509 1.579L300.069 617.19a18.19 18.19 0 0 1 5.229 16.097l-46.209 269.415c-0.136 0.81-0.23 1.53-0.29 2.164a27.993 27.993 0 0 0 1.967-0.945L502.72 776.718a18.181 18.181 0 0 1 16.927 0l241.954 127.203a27.543 27.543 0 0 0 1.967 0.945 29.93 29.93 0 0 0-0.29-2.164l-46.21-269.415a18.192 18.192 0 0 1 5.23-16.097L918.04 426.386a27.01 27.01 0 0 0 1.508-1.585 31.268 31.268 0 0 0-2.147-0.393L646.89 385.1a18.163 18.163 0 0 1-13.688-9.945l-120.98-245.128a30.396 30.396 0 0 0-1.038-1.917 30.396 30.396 0 0 0-1.038 1.917l-120.98 245.128a18.163 18.163 0 0 1-13.687 9.945L104.97 424.408c-0.82 0.12-1.53 0.257-2.152 0.399z" p-id="4806"></path>
			</symbol>
<symbol  viewBox="0 0 1024 1024" id="star3">
<path d="M777.87136 1006.03392l-260.5824-157.04576-260.62848 157.04576a42.28096 42.28096 0 0 1-47.39072-2.59072 47.02208 47.02208 0 0 1-17.07008-46.63296l62.17216-307.18464L31.10912 439.33184c-12.7744-12.11392-20.07552-30.85312-14.7968-47.89248 5.376-17.16736 22.26688-29.32224 39.43424-31.22176l299.02336-33.16736L477.3888 40.37632c7.00416-16.49664 22.58432-29.19936 39.82336-29.19936 17.18784 0 32.82944 12.70272 39.85408 29.19936l122.59328 286.67392 299.02336 33.16736c17.16736 1.89952 28.53376 14.05952 33.86368 31.22176 5.31968 17.03936 3.53792 35.84-9.25696 47.89248l-223.28832 210.29376 62.27456 307.18464c3.54816 17.56672-3.15904 35.97824-17.09056 46.5664a41.63584 41.63584 0 0 1-47.31392 2.65728z" fill="#FFBD57" p-id="7664"></path>
</symbol>
<symbol  viewBox="0 0 1024 1024" id="star4">
<path d="M240.439094 934.097434c11.121292 7.628748 24.163329 11.507078 37.225833 11.507078 10.765181 0 21.521153-2.609431 31.260981-7.834432l203.049532-109.348454 203.083302 109.348454c9.774621 5.225001 20.539802 7.834432 31.266098 7.834432 13.047154 0 26.090215-3.87833 37.255509-11.507078 20.168342-13.930267 30.485315-37.812187 26.446325-61.638849l-39.577391-236.383732 170.733523-170.484859c16.906042-16.813944 22.690792-41.484833 14.994506-63.893192-7.720845-22.369473-27.592428-38.700417-51.513234-42.275849l-232.905514-34.651194-101.256148-210.169697c-10.613732-22.076808-33.432437-36.20355-58.527998-36.20355-25.012673 0-47.845705 14.126742-58.503439 36.20355l-101.231589 210.169697-232.914724 34.651194c-23.935132 3.575432-43.806715 19.906375-51.513234 42.275849-7.697309 22.407336-1.87265 47.079248 15.023158 63.893192L253.497505 636.074853l-39.587624 236.383732C209.924103 896.285247 220.225727 920.167167 240.439094 934.097434L240.439094 934.097434zM118.886691 422.054455l232.169757-34.485419 40.84629-6.087649 17.930371-37.172621 102.159728-211.819267 102.143355 211.819267 17.944697 37.172621 40.841174 6.087649 232.169757 34.485419L735.779669 590.945003l-28.441772 28.369118 6.619768 39.587624 39.562041 235.94985L548.915771 784.805246l-36.968983-19.895119-36.96796 19.895119L270.377964 894.889457l39.564088-235.982596 6.619768-39.59274-28.442796-28.369118L118.886691 422.054455 118.886691 422.054455zM118.886691 422.054455" p-id="8848"></path>
</symbol>
            
</defs>
</svg>